<?xml version="1.0" encoding="UTF-8"?>
<svg version="1.1" xmlns="http://www.w3.org/2000/svg" width="1024" height="1024">
<path d="M0 0 C337.92 0 675.84 0 1024 0 C1024 337.92 1024 675.84 1024 1024 C686.08 1024 348.16 1024 0 1024 C0 686.08 0 348.16 0 0 Z " fill="#1B76AC" transform="translate(0,0)"/>
<path d="M0 0 C2.12126038 1.28165662 4.14920114 2.59691673 6.1875 4 C7.14124512 4.64618286 7.14124512 4.64618286 8.11425781 5.30541992 C9.57519153 6.29652524 11.03420066 7.29047099 12.49169922 8.28662109 C15.28320489 10.19345259 18.08075215 12.09122 20.87890625 13.98828125 C25.15656867 16.88967823 29.42949178 19.79787662 33.69921875 22.7109375 C37.73271818 25.46169641 41.77623475 28.19629655 45.83203125 30.9140625 C46.71922852 31.51178467 47.60642578 32.10950684 48.52050781 32.7253418 C50.18160515 33.8441735 51.84618815 34.95785208 53.51464844 36.06567383 C54.6076123 36.80466919 54.6076123 36.80466919 55.72265625 37.55859375 C56.35953369 37.98454834 56.99641113 38.41050293 57.65258789 38.84936523 C58.31955688 39.41892944 58.31955688 39.41892944 59 40 C59 40.66 59 41.32 59 42 C51.63738276 42.11591817 44.27496266 42.20472648 36.91161728 42.25906086 C33.49234507 42.28514091 30.07369772 42.3205065 26.65478516 42.37719727 C22.72305822 42.44198227 18.79158311 42.4661939 14.859375 42.48828125 C13.63321472 42.51408768 12.40705444 42.5398941 11.14373779 42.56648254 C10.00285706 42.5668602 8.86197632 42.56723785 7.68652344 42.56762695 C6.68280701 42.57873001 5.67909058 42.58983307 4.6449585 42.60127258 C1.03537124 41.78071307 0.07412237 39.96190011 -2 37 C-5.19123774 35.40438113 -8.52745091 35.6200858 -12 36 C-15.58552881 37.63687185 -16.79315055 38.68972583 -19 42 C-18.979375 43.21816406 -18.95875 44.43632812 -18.9375 45.69140625 C-19.26407419 48.82035939 -19.81541595 49.82259706 -22.12109375 52.03857422 C-25.0161032 54.12924328 -27.96678896 56.05306105 -31 57.9375 C-32.03640625 58.60845703 -33.0728125 59.27941406 -34.140625 59.97070312 C-36.04699059 61.20460075 -37.96043662 62.42767186 -39.8828125 63.63647461 C-41.90138119 64.83084076 -41.90138119 64.83084076 -43 66 C-44.41439104 66.1315033 -45.83188775 66.23032462 -47.25 66.3125 C-51.58543797 66.74052095 -53.89971296 67.80282899 -57 71 C-58.85726616 74.71453232 -58.58501089 78.95579425 -58 83 C-55.80977082 85.82424288 -54.16982793 87.41508603 -51 89 C-49.61425768 88.84003586 -48.22890461 88.67669451 -46.84375 88.51171875 C-38.69735849 88.44597492 -32.14962064 93.62610964 -25.5 97.8125 C-24.05495503 98.69978325 -22.60865508 99.58502573 -21.16113281 100.46826172 C-17.68603581 102.59433495 -14.22545048 104.74267664 -10.76928711 106.89935303 C-7.77949819 108.75925587 -4.76740323 110.58197951 -1.75610352 112.40673828 C0.27823716 113.6421478 2.30569117 114.88823565 4.33203125 116.13671875 C8.68526283 118.8143521 13.05736075 121.46051619 17.43125916 124.10418701 C20.48150661 125.94845726 23.52922883 127.79663552 26.57104492 129.65478516 C27.16392807 130.01691101 27.75681122 130.37903687 28.36766052 130.75213623 C29.55064756 131.47471065 30.73356029 132.19740673 31.91639709 132.92022705 C35.55711469 135.1390524 39.22520263 137.30378841 42.9140625 139.44140625 C44.63036136 140.46067986 46.34651831 141.4801925 48.0625 142.5 C48.8352124 142.93111084 49.6079248 143.36222168 50.40405273 143.80639648 C54.52244982 146.29423104 56.34095052 148.04303088 57.74609375 152.71875 C57.90650146 153.48123047 58.06690918 154.24371094 58.23217773 155.02929688 C58.8463519 157.19451073 58.8463519 157.19451073 61.07836914 158.26757812 C61.71250732 158.50927734 62.34664551 158.75097656 63 159 C63.09901748 163.62640153 63.17153649 168.25218387 63.21972656 172.87939453 C63.2398188 174.45274604 63.26709799 176.02602308 63.30175781 177.59912109 C63.35038494 179.86314272 63.37299135 182.12617573 63.390625 184.390625 C63.41127014 185.09181458 63.43191528 185.79300415 63.45318604 186.51544189 C63.45476256 189.96141519 63.31798313 191.63017781 61.03369141 194.28686523 C60.02701416 195.13486694 60.02701416 195.13486694 59 196 C58.69320312 196.99644531 58.38640625 197.99289062 58.0703125 199.01953125 C56.71350454 202.79779576 55.27426488 203.62663778 51.875 205.6875 C50.79089844 206.368125 49.70679688 207.04875 48.58984375 207.75 C48.0057373 208.11222656 47.42163086 208.47445312 46.81982422 208.84765625 C43.62905301 210.86810703 40.53968835 213.03452891 37.4375 215.1875 C36.06412417 216.13458182 34.69041781 217.08118448 33.31640625 218.02734375 C32.6114502 218.51315918 31.90649414 218.99897461 31.18017578 219.49951172 C20.14314975 227.09565528 9.0693003 234.63851679 -2 242.1875 C-3.42530029 243.15961426 -3.42530029 243.15961426 -4.87939453 244.15136719 C-6.20753174 245.05677246 -6.20753174 245.05677246 -7.5625 245.98046875 C-8.34753906 246.51567139 -9.13257813 247.05087402 -9.94140625 247.60229492 C-14.28168442 250.54917497 -16.2279074 251.21092603 -21.5 251.0625 C-26.33699775 250.91808351 -26.33699775 250.91808351 -31 252 C-32.79907227 251.03466797 -32.79907227 251.03466797 -34.81640625 249.4921875 C-35.57123291 248.9242749 -36.32605957 248.3563623 -37.10375977 247.77124023 C-37.91514404 247.14548096 -38.72652832 246.51972168 -39.5625 245.875 C-41.29101447 244.57074978 -43.02019673 243.26738417 -44.75 241.96484375 C-46.06677734 240.96686768 -46.06677734 240.96686768 -47.41015625 239.94873047 C-51.25454497 237.05601641 -55.15471207 234.2436565 -59.0625 231.4375 C-60.54434136 230.36988954 -62.02611197 229.3021809 -63.5078125 228.234375 C-64.24290039 227.70521484 -64.97798828 227.17605469 -65.73535156 226.63085938 C-71.12636332 222.748587 -76.51101628 218.85750229 -81.89453125 214.96484375 C-84.44996405 213.1173789 -87.00934864 211.27574314 -89.57421875 209.44140625 C-90.58097656 208.71824219 -91.58773437 207.99507812 -92.625 207.25 C-93.91277344 206.32960938 -93.91277344 206.32960938 -95.2265625 205.390625 C-95.81179687 204.93171875 -96.39703125 204.4728125 -97 204 C-97 203.67 -97 203.34 -97 203 C-79.84 203 -62.68 203 -45 203 C-44.01 204.98 -43.02 206.96 -42 209 C-39.38730932 211.90298965 -38.03644383 211.99652916 -34.0625 212.375 C-30.21281456 212.17501634 -27.88963666 211.72910129 -25 209 C-24.4771142 207.43398968 -23.9877331 205.85665729 -23.51953125 204.2734375 C-20.98356916 197.70831048 -16.50614084 195.54866224 -10.4375 192.5 C-9.47908203 191.98953125 -8.52066406 191.4790625 -7.53320312 190.953125 C-5.76457591 190.01117918 -3.98911774 189.08186246 -2.20483398 188.16992188 C0.18469295 186.94909015 0.18469295 186.94909015 3 185 C5.3046875 184.7265625 5.3046875 184.7265625 7.875 184.625 C12.39126814 184.26237993 14.80716537 183.39882396 18 180 C19.7457684 176.50846319 19.55928599 172.80972455 19 169 C16.94401566 165.81654037 15.4638557 164.3871142 11.76953125 163.41015625 C6.60470868 162.64524884 6.60470868 162.64524884 2 165 C-3.98080786 164.92858737 -8.27817337 161.63833297 -13.125 158.5 C-15.01081218 157.30585879 -16.89758117 156.11322765 -18.78515625 154.921875 C-19.79078613 154.28443359 -20.79641602 153.64699219 -21.83251953 152.99023438 C-26.79027362 149.87511095 -31.79760469 146.84227641 -36.80734253 143.8117981 C-38.56697272 142.74729419 -40.32572952 141.68136163 -42.08422852 140.61499023 C-44.48163359 139.16128812 -46.87933318 137.70807417 -49.27734375 136.25537109 C-55.08340998 132.73798321 -60.88814864 129.21840892 -66.69186401 125.69714355 C-68.52868824 124.58300869 -70.36601142 123.46970009 -72.20336914 122.35644531 C-73.31317139 121.68323242 -74.42297363 121.01001953 -75.56640625 120.31640625 C-76.54552979 119.72287354 -77.52465332 119.12934082 -78.53344727 118.51782227 C-83.91115853 115.20858432 -83.91115853 115.20858432 -85.4375 111.625 C-86.6590804 108.00628111 -86.6590804 108.00628111 -89.06225586 106.35888672 C-92.04535439 102.72745191 -91.59216659 99.19932321 -91.56640625 94.6328125 C-91.57570412 93.26429642 -91.57570412 93.26429642 -91.58518982 91.86813354 C-91.59228675 89.9399319 -91.58911617 88.01166897 -91.57641602 86.08349609 C-91.56257877 83.14174713 -91.59658699 80.20319765 -91.63476562 77.26171875 C-91.63571715 75.38541589 -91.63385622 73.50910907 -91.62890625 71.6328125 C-91.64216446 70.7576297 -91.65542267 69.8824469 -91.66908264 68.98074341 C-91.57549677 62.80166952 -90.18855744 60.47270269 -86 56 C-85.938125 54.72125 -85.87625 53.4425 -85.8125 52.125 C-85.5883449 49.30171316 -85.20907326 48.23246273 -83.2890625 46.09765625 C-80.60898568 43.92065032 -77.84899964 41.95170441 -75 40 C-73.79134231 39.1580175 -72.58302533 38.31554577 -71.375 37.47265625 C-68.68053196 35.60356672 -65.97457148 33.75244558 -63.26171875 31.91015625 C-59.05726057 29.04981711 -54.89888894 26.1276767 -50.75 23.1875 C-43.38691252 17.9724112 -35.99890781 12.7937791 -28.59863281 7.6315918 C-27.79651367 7.07125244 -26.99439453 6.51091309 -26.16796875 5.93359375 C-25.10485474 5.1919397 -25.10485474 5.1919397 -24.02026367 4.43530273 C-22.62039217 3.44075959 -21.25067976 2.40290456 -19.90771484 1.33276367 C-17.31731714 -0.47693444 -15.5568999 -0.26929877 -12.4375 -0.125 C-7.99735874 0.05573845 -4.16347906 -1.53819475 0 0 Z " fill="#1A6FA7" transform="translate(249,390)"/>
<path d="M0 0 C4.42483445 2.25416094 6.87082141 4.51751875 9 9 C9.05526855 9.61584961 9.11053711 10.23169922 9.16748047 10.86621094 C10.50583994 14.29649299 13.51528368 15.73543299 16.5078125 17.640625 C17.17706757 18.08025574 17.84632263 18.51988647 18.53585815 18.97283936 C20.72571177 20.40883064 22.92534795 21.82907425 25.125 23.25 C28.15161387 25.22954429 31.17309986 27.2168701 34.1953125 29.203125 C34.94878967 29.69663452 35.70226685 30.19014404 36.47857666 30.6986084 C43.98806373 35.62449931 51.35510701 40.73674666 58.70361328 45.89941406 C61.13219259 47.60477503 63.56442796 49.30464339 66 51 C67.21393433 51.84896851 67.21393433 51.84896851 68.45239258 52.71508789 C69.23767334 53.25383545 70.0229541 53.79258301 70.83203125 54.34765625 C71.52272705 54.82468994 72.21342285 55.30172363 72.92504883 55.79321289 C75.14433778 57.08394654 77.21387738 57.77534948 79.6875 58.4375 C84.6421008 59.92995418 87.46388831 62.50334807 90 67 C91.67353827 71.4987588 91.31935939 74.96159744 89.375 79.3125 C87.4015003 82.71762321 85.81113389 84.64493017 82 86 C78.89462815 86.4543044 76.0795733 86.64220987 73 86 C72.23558594 85.3407251 71.47117187 84.6814502 70.68359375 84.00219727 C65.67649754 80.60203248 59.4955519 81.43091819 53.68359375 81.46875 C52.39437515 81.4649231 51.10515656 81.46109619 49.77687073 81.45715332 C47.05588482 81.45127516 44.33542627 81.45976698 41.61450195 81.47851562 C38.13514811 81.50132839 34.65702705 81.48815886 31.17771816 81.46422577 C27.84624562 81.44626098 24.51510127 81.45885344 21.18359375 81.46875 C19.31470741 81.45660461 19.31470741 81.45660461 17.4080658 81.44421387 C16.24658524 81.45682251 15.08510468 81.46943115 13.88842773 81.48242188 C12.86949936 81.48560425 11.85057098 81.48878662 10.80076599 81.49206543 C7.28363287 82.12991718 5.62618243 83.63774435 3 86 C1 87 1 87 -2.4765625 86.65625 C-8.4879374 86.58019103 -12.64180854 90.15687945 -17.375 93.5 C-19.15122923 94.72226932 -20.92975958 95.94120359 -22.7109375 97.15625 C-23.48743652 97.70087891 -24.26393555 98.24550781 -25.06396484 98.80664062 C-27 100 -27 100 -29 100 C-27.64602825 104.55471042 -25.97093267 106.06593913 -21.8828125 108.390625 C-20.81554932 109.0086499 -19.74828613 109.6266748 -18.64868164 110.26342773 C-18.0760257 110.58624725 -17.50336975 110.90906677 -16.9133606 111.2416687 C-14.46122955 112.62425367 -12.0277043 114.03826443 -9.59223938 115.44993591 C-8.31544796 116.18937477 -7.03767056 116.92711352 -5.75895691 117.66322327 C0.87108066 121.48275419 7.40702558 125.45093233 13.9375 129.4375 C15.09265578 130.14089964 16.2479296 130.84410546 17.40332031 131.54711914 C19.73756188 132.96757354 22.0713544 134.38876094 24.40478516 135.81054688 C30.03351405 139.23939842 35.66746253 142.65965989 41.30130005 146.08010864 C43.06428013 147.15062954 44.82697026 148.22162636 46.58959961 149.29272461 C48.73063669 150.59315584 50.87414644 151.88952778 53.02050781 153.18115234 C54.97999892 154.37733464 56.9229563 155.60110893 58.84667969 156.85400391 C59.71969727 157.41394043 60.59271484 157.97387695 61.4921875 158.55078125 C62.24612793 159.04876221 63.00006836 159.54674316 63.77685547 160.05981445 C66.61765565 161.2612115 68.06525863 160.79634007 71 160 C76.60933831 159.64385154 80.18648235 159.75367414 85 163 C88.42786865 166.77065551 88.50195847 170.66449083 88.36328125 175.5546875 C87.80782087 179.29359282 86.47023237 181.16649816 84 184 C83.34 184.33 82.68 184.66 82 185 C81.67 195.89 81.34 206.78 81 218 C82.32 218.66 83.64 219.32 85 220 C87.67800845 223.04738892 88.26479231 225.48337453 88.125 229.4375 C87.40526063 233.8746561 85.83483724 236.31613734 82.26171875 239.01953125 C79.42728558 240.24827516 77.56368768 240.0270136 74.5 239.75 C66.36956461 239.33538825 61.15789848 243.91421124 54.96630859 248.54589844 C51.73064703 250.93869708 48.39033412 253.17572705 45.0625 255.4375 C43.71923514 256.3620955 42.37678954 257.28788235 41.03515625 258.21484375 C37.02723575 260.98210204 33.01404361 263.74163409 29 266.5 C27.67837605 267.40884054 26.35676149 268.31769474 25.03515625 269.2265625 C22.25249773 271.13976789 19.4684479 273.05092959 16.68359375 274.9609375 C15.97267578 275.44884766 15.26175781 275.93675781 14.52929688 276.43945312 C13.18331185 277.36316834 11.83698507 278.28638585 10.49023438 279.20898438 C9.56500977 279.84416992 9.56500977 279.84416992 8.62109375 280.4921875 C8.02409668 280.90178711 7.42709961 281.31138672 6.81201172 281.73339844 C4.90534191 283.06616628 3.03470022 284.44283971 1.16015625 285.8203125 C-2 288 -2 288 -4 288 C-3.9175 288.86625 -3.835 289.7325 -3.75 290.625 C-4.06676868 294.90137718 -5.24745675 296.74040931 -8 300 C-12.365558 302.910372 -15.79500079 303.6506249 -21 303 C-24.83944355 300.93260732 -27.85433378 298.83961324 -30 295 C-30.03609375 294.08089844 -30.0721875 293.16179687 -30.109375 292.21484375 C-31.42871579 287.45248642 -34.41012184 286.03048163 -38.4375 283.4375 C-40.00089596 282.38414107 -41.56336686 281.3294081 -43.125 280.2734375 C-43.93324219 279.73428711 -44.74148437 279.19513672 -45.57421875 278.63964844 C-49.42642909 276.03583959 -53.17959131 273.29984415 -56.9375 270.5625 C-58.44637447 269.46972047 -59.95549034 268.37727418 -61.46484375 267.28515625 C-62.58802002 266.47135498 -62.58802002 266.47135498 -63.73388672 265.64111328 C-65.98932818 264.0077285 -68.24628393 262.37646263 -70.50390625 260.74609375 C-71.24648682 260.20952148 -71.98906738 259.67294922 -72.75415039 259.12011719 C-74.24529852 258.04442863 -75.73796484 256.97084135 -77.23217773 255.89941406 C-81.12296129 253.10481131 -84.97383855 250.27068873 -88.78125 247.36328125 C-89.57144531 246.76902344 -90.36164063 246.17476562 -91.17578125 245.5625 C-92.67355306 244.43476593 -94.16145213 243.29373773 -95.63671875 242.13671875 C-100.24271657 238.69734327 -104.05693604 237.20825163 -109.76953125 236.45898438 C-113.59936815 235.67088309 -115.35849904 233.83961354 -118 231 C-120.08165901 227.3097863 -120.57557757 224.1934937 -120 220 C-117.87945561 215.48011454 -115.85449242 211.7668603 -111 210 C-105.78064095 209.33105085 -101.40418267 209.17401019 -96.8125 211.875 C-95 214 -95 214 -95 216 C-87.22869568 215.89248322 -79.45748398 215.77984667 -71.68635082 215.66066074 C-68.0779594 215.60548 -64.46955979 215.5520678 -60.86108398 215.50268555 C-57.37916857 215.45497039 -53.89735081 215.40262508 -50.41555214 215.34705925 C-48.43969447 215.31673963 -46.46376498 215.29122425 -44.48783875 215.26576233 C-43.28682022 215.24581711 -42.0858017 215.22587189 -40.84838867 215.20532227 C-39.78915695 215.18977798 -38.72992523 215.1742337 -37.63859558 215.15821838 C-34.89184665 215.10776932 -34.89184665 215.10776932 -32 214 C-30.99453125 214.14308594 -30.99453125 214.14308594 -29.96875 214.2890625 C-19.31039386 215.73940843 -10.55887562 208.50622329 -2 203 C-5.81910362 199.77012951 -9.85852887 197.22168774 -14.1875 194.75 C-21.63739854 190.43118245 -28.98682419 185.96349482 -36.3125 181.4375 C-38.53246056 180.06886195 -40.75251478 178.70037581 -42.97265625 177.33203125 C-44.12256864 176.62322594 -45.27247084 175.91440408 -46.42236328 175.20556641 C-47.29674042 174.66660736 -47.29674042 174.66660736 -48.18878174 174.11676025 C-49.42116597 173.35689726 -50.65337788 172.59675474 -51.88543701 171.83636475 C-55.71820982 169.47119314 -59.55472201 167.11229823 -63.39633179 164.76150513 C-64.62118698 164.01053244 -65.84470607 163.25737569 -67.06680298 162.50192261 C-68.7754093 161.44611577 -70.48917814 160.39867749 -72.203125 159.3515625 C-73.17926758 158.75166504 -74.15541016 158.15176758 -75.16113281 157.53369141 C-78.07330774 155.96039566 -80.80005172 154.84325254 -84 154 C-84.66 154.33 -85.32 154.66 -86 155 C-90.64304187 155.56645111 -94.12513117 155.42123314 -98.375 153.375 C-102.34649089 149.78174634 -103.77501477 146.79988182 -104.4375 141.5 C-103.88549685 137.08397479 -102.15049149 134.15049149 -99 131 C-98.70642395 124.96385342 -98.6858442 118.92517133 -98.64990234 112.88256836 C-98.63337245 110.84469153 -98.60612178 108.80687197 -98.56787109 106.76928711 C-98.51298711 103.83156235 -98.49120733 100.89520033 -98.4765625 97.95703125 C-98.45389313 97.05056351 -98.43122375 96.14409576 -98.40786743 95.2101593 C-98.42863643 88.96342377 -99.61234312 86.43074423 -104 82 C-105.15429315 77.82777839 -104.80963625 73.88680448 -103.1015625 69.90625 C-100.92480877 66.79283255 -99.07128834 65.25641703 -95.33984375 64.36328125 C-93.81037109 64.12158203 -93.81037109 64.12158203 -92.25 63.875 C-83.01609596 62.15803825 -76.66796145 56.38368294 -69.39550781 50.79931641 C-65.44255469 47.83017001 -61.34750914 45.07686602 -57.25 42.3125 C-51.16130687 38.1783616 -45.10540023 34.01084931 -39.16210938 29.66943359 C-36.05656204 27.41343087 -32.90715442 25.29003371 -29.65234375 23.25390625 C-28.91975342 22.7842041 -28.18716309 22.31450195 -27.43237305 21.83056641 C-26.01960976 20.92876226 -24.59316142 20.04790569 -23.15161133 19.19287109 C-20.26959517 17.33026749 -18.38243602 16.06063799 -17.19311523 12.76220703 C-16.67247383 10.38078489 -16.67247383 10.38078489 -16.4206543 8.07055664 C-15.72961954 4.66912555 -13.64724731 3.06614424 -11 1 C-7.27148658 -0.24283781 -3.87253239 -0.5280726 0 0 Z M-1 26 C-2.71996097 25.92670223 -4.43883368 25.82585674 -6.15625 25.70703125 C-12.51298721 25.66213314 -15.70592986 27.74521348 -20.5 31.6875 C-22.06048138 32.89194279 -23.62305005 34.09368525 -25.1875 35.29296875 C-26.37666016 36.21988525 -26.37666016 36.21988525 -27.58984375 37.16552734 C-31.45131753 40.10465963 -35.47276097 42.79502674 -39.5 45.5 C-48.13046282 51.35359721 -56.59811965 57.41421335 -65.02294922 63.55908203 C-66.85754763 64.89617759 -68.69544963 66.22853915 -70.53515625 67.55859375 C-76.22422762 70.93726205 -76.22422762 70.93726205 -79.39453125 76.14453125 C-79.67179716 77.91436881 -79.94269839 79.68521593 -80.20703125 81.45703125 C-81 84 -81 84 -83.01196289 85.57568359 C-86.0244855 89.24931119 -85.61117555 92.71174127 -85.6015625 97.33203125 C-85.61013275 98.24200363 -85.618703 99.15197601 -85.62753296 100.08952332 C-85.63900847 102.01350583 -85.64002807 103.93757511 -85.63134766 105.86157227 C-85.62504259 108.79270259 -85.67188596 111.71976199 -85.72265625 114.65039062 C-85.72720434 116.52343243 -85.72860825 118.39648504 -85.7265625 120.26953125 C-85.74498199 121.13955276 -85.76340149 122.00957428 -85.78237915 122.90596008 C-85.6958229 128.65502332 -84.4676166 131.39160081 -80.41986084 135.46652222 C-79 137 -79 137 -77.99853516 139.6965332 C-76.51513258 143.11851445 -74.23216685 144.04431617 -71.0234375 145.85546875 C-70.42605774 146.19852051 -69.82867798 146.54157227 -69.2131958 146.89501953 C-67.27416469 148.00540326 -65.32473341 149.09603913 -63.375 150.1875 C-61.36317384 151.33534818 -59.35440295 152.48842265 -57.34567261 153.64167786 C-56.02559981 154.39902569 -54.70457909 155.15472375 -53.38259888 155.90873718 C-48.72907704 158.56485237 -44.14467804 161.30853123 -39.625 164.1875 C-32.24725237 168.86791966 -24.79279409 173.41696952 -17.31542969 177.93652344 C-13.11552235 180.47786864 -8.9262352 183.0218343 -4.81640625 185.70703125 C-4.22110107 186.09165527 -3.6257959 186.4762793 -3.01245117 186.87255859 C-1.5087914 187.85048671 -0.0155661 188.84441001 1.4765625 189.83984375 C4.51338294 191.236029 5.86988367 191.03090862 9 190 C9.66 189.67 10.32 189.34 11 189 C15.66620736 188.87165638 19.12846859 189.43083663 23.0625 192 C25.68513751 196.06085808 25.94747991 199.28820803 25 204 C23.20606332 206.87029869 22.01736724 208.49131638 19 210 C17.561551 210.05245958 16.12262186 210.09205077 14.68359375 210.125 C7.52900574 210.7940138 2.09730624 214.32725742 -3.9375 218 C-5.05962891 218.63550781 -6.18175781 219.27101563 -7.33789062 219.92578125 C-14.32517831 224.0165368 -14.32517831 224.0165368 -18.1171875 230.87109375 C-18.3335083 231.97988892 -18.3335083 231.97988892 -18.55419922 233.11108398 C-19 235 -19 235 -21.1875 237.0625 C-24.91590542 238.30530181 -28.11497638 238.70779783 -32 238 C-36.4352009 235.39672991 -37.0123675 233.96908126 -39 229 C-56.16 229 -73.32 229 -91 229 C-86.87677633 233.18503815 -86.87677633 233.18503815 -82.42578125 236.65625 C-81.76779541 237.11443115 -81.10980957 237.5726123 -80.43188477 238.04467773 C-79.38278931 238.76506226 -79.38278931 238.76506226 -78.3125 239.5 C-76.78582443 240.56289217 -75.25980389 241.62672567 -73.734375 242.69140625 C-72.95126953 243.23684082 -72.16816406 243.78227539 -71.36132812 244.34423828 C-67.56774814 247.00429406 -63.81444228 249.71917216 -60.0625 252.4375 C-58.95430908 253.23909546 -58.95430908 253.23909546 -57.82373047 254.05688477 C-53.93964035 256.86748476 -50.05920125 259.68308804 -46.1796875 262.5 C-45.38554443 263.07564697 -44.59140137 263.65129395 -43.77319336 264.24438477 C-42.27291898 265.33191511 -40.77364537 266.42082815 -39.27563477 267.51147461 C-34.26853241 271.13956406 -29.16655232 274.60315592 -24 278 C-23.34 277.67 -22.68 277.34 -22 277 C-20.04357905 277.1292459 -18.0879491 277.27056348 -16.1328125 277.41796875 C-7.91274971 277.46653466 -3.27323147 274.13096537 3.125 269.3125 C4.21190014 268.52866301 5.30105159 267.74793914 6.39233398 266.97021484 C8.58068148 265.40581842 10.75765488 263.82746847 12.92626953 262.23583984 C17.2386006 259.09903858 21.64511728 256.11094682 26.0625 253.125 C27.58678163 252.08326533 29.11023872 251.040323 30.6328125 249.99609375 C31.35887695 249.49835449 32.08494141 249.00061523 32.83300781 248.48779297 C34.9917003 247.00569833 37.14857093 245.52099537 39.3046875 244.03515625 C39.99530273 243.55973389 40.68591797 243.08431152 41.39746094 242.59448242 C42.73582548 241.67143373 44.07247763 240.7458962 45.40722656 239.81762695 C48.41213275 237.73574389 51.42664772 235.71318655 54.5546875 233.8203125 C61.1085677 229.78111055 64.05902204 227.50511477 66 220 C66.99 219.34 67.98 218.68 69 218 C69.26711404 215.44604513 69.34849029 213.13725626 69.29296875 210.5859375 C69.28872391 209.85629791 69.28447906 209.12665833 69.28010559 208.37490845 C69.26329353 206.04123241 69.22563868 203.7084156 69.1875 201.375 C69.17245634 199.79428329 69.15876738 198.21355307 69.14648438 196.6328125 C69.11338201 192.75487656 69.06158404 188.87758402 69 185 C68.34999023 184.70738281 67.69998047 184.41476562 67.03027344 184.11328125 C66.3602832 183.74589844 65.69029297 183.37851562 65 183 C64.515625 181.1875 64.515625 181.1875 64.25 179 C62.00660934 171.80292944 54.87805487 169.05191594 48.72509766 165.56689453 C43.93756454 162.81412733 39.24366944 159.90656697 34.53259277 157.02557373 C31.50434913 155.17716931 28.46873306 153.34095767 25.43359375 151.50390625 C19.97860202 148.20053767 14.5270776 144.89153047 9.0793457 141.57620239 C6.16626419 139.80384914 3.25125815 138.03484483 0.33154297 136.2734375 C-4.88631962 133.12326046 -10.09030921 129.9588156 -15.23646545 126.69238281 C-16.94007441 125.61334475 -18.64922802 124.54373248 -20.3605957 123.47705078 C-22.47068715 122.15869733 -24.57038031 120.82348618 -26.65698242 119.46826172 C-32.28362316 115.98408181 -36.24669166 114.28312761 -42.91943359 114.90185547 C-46.00204079 115.04726829 -47.69039536 113.94872892 -50 112 C-52.82368571 107.76447144 -52.66653757 103.97522686 -52 99 C-50.20353146 96.06576805 -49.0558929 94.52794645 -46 93 C-44.700625 92.979375 -43.40125 92.95875 -42.0625 92.9375 C-36.51747371 92.37059635 -33.20416498 89.64096401 -28.92578125 86.24609375 C-25.86488077 83.89627029 -22.68318347 81.98177064 -19.375 80 C-15.47934876 77.62266704 -15.47934876 77.62266704 -13.19921875 73.89453125 C-13.07039901 71.93279064 -13.03222461 69.96570148 -13 68 C-10.80742191 65.35766231 -9.06660382 63.53330191 -6 62 C1.08958838 61.4188862 1.08958838 61.4188862 4.9375 63.875 C7 66 7 66 8 68 C26.81 68 45.62 68 65 68 C63.55144792 63.65434377 60.20365091 62.24177157 56.5 59.875 C54.85586841 58.80216296 53.21269353 57.72785878 51.5703125 56.65234375 C50.23081543 55.77811768 50.23081543 55.77811768 48.86425781 54.88623047 C43.66242564 51.46061204 38.52161822 47.94528359 33.375 44.4375 C32.3113623 43.7148999 31.24772461 42.9922998 30.15185547 42.24780273 C25.39915561 39.01571773 20.65693501 35.77166744 15.953125 32.46875 C15.21143066 31.94998291 14.46973633 31.43121582 13.70556641 30.89672852 C12.35976697 29.95283703 11.01799132 29.00317088 9.68115234 28.04663086 C5.60733427 25.19248172 3.84268865 24.38577045 -1 26 Z " fill="#F5F9FB" transform="translate(243,364)"/>
<path d="M0 0 C52.33489461 0 52.33489461 0 63 9 C67.97179768 14.27495608 70.01117814 20.14327539 70.3125 27.375 C70.12102474 33.30065537 69.19043545 38.60799073 65.08984375 43.0859375 C62.52623975 45.36573053 60.07662179 47.4616891 57 49 C57.59167969 49.36351562 58.18335938 49.72703125 58.79296875 50.1015625 C65.42811437 54.32294389 70.51032231 58.24952511 73 66 C73.96610283 75.46780775 73.94279828 84.09637995 68 92 C62.27082406 98.68888561 54.42724757 101.31455049 46 103 C30.82 103 15.64 103 0 103 C0 69.01 0 35.02 0 0 Z " fill="#F5F9FB" transform="translate(654,451)"/>
<path d="M0 0 C2.44787437 1.39073093 4.29413104 2.94039973 6.03515625 5.15625 C6.36515625 2.84625 6.69515625 0.53625 7.03515625 -1.84375 C12.64515625 -1.84375 18.25515625 -1.84375 24.03515625 -1.84375 C24.10304663 8.70954882 24.15803844 19.26270159 24.19059277 29.81616974 C24.20622051 34.71704754 24.22740584 39.61776763 24.26147461 44.51855469 C24.29417133 49.2518213 24.312031 53.98493662 24.31978798 58.7183075 C24.32531301 60.52034383 24.33610197 62.32237228 24.35234642 64.12434387 C24.37425804 66.6566429 24.37711749 69.18832392 24.37573242 71.72070312 C24.38651825 72.45870148 24.39730408 73.19669983 24.40841675 73.95706177 C24.3641445 81.48204659 22.03796407 87.96880006 16.8984375 93.5546875 C7.58416004 101.56067022 -4.15736585 103.03449216 -15.96484375 102.15625 C-24.90947427 100.75386392 -32.14509564 97.17188263 -38.40234375 90.59375 C-39.98941457 88.11791951 -41.16568266 85.98963931 -41.96484375 83.15625 C-41.63484375 81.83625 -41.30484375 80.51625 -40.96484375 79.15625 C-33.04484375 78.66125 -33.04484375 78.66125 -24.96484375 78.15625 C-23.97484375 79.80625 -22.98484375 81.45625 -21.96484375 83.15625 C-16.6049546 87.1418086 -10.36120957 86.92065086 -3.96484375 86.15625 C0.85238405 84.0917238 3.1646913 81.24797404 5.2890625 76.59375 C6.72676417 71.89675605 6.87235505 67.04028604 7.03515625 62.15625 C6.37515625 62.15625 5.71515625 62.15625 5.03515625 62.15625 C5.03515625 62.81625 5.03515625 63.47625 5.03515625 64.15625 C3.42578125 65.41015625 3.42578125 65.41015625 1.28515625 66.71875 C0.5890625 67.15316406 -0.10703125 67.58757812 -0.82421875 68.03515625 C-7.71969725 71.64647437 -17.51665504 71.37371153 -24.890625 69.35546875 C-32.3739842 65.96875409 -38.49220908 59.91510422 -41.90234375 52.40625 C-45.57578569 41.16983935 -46.26493213 24.93711158 -40.96484375 14.15625 C-32.92564141 -1.53565456 -16.14312293 -7.3497145 0 0 Z " fill="#F5F9FB" transform="translate(886.96484375,480.84375)"/>
<path d="M0 0 C8.0369393 6.15931374 12.34132211 15.89328483 13.9140625 25.68359375 C14.95009737 37.46849037 13.01929143 48.98495626 5.9140625 58.68359375 C-0.74764007 66.23173255 -7.9259789 70.02494237 -17.921875 71.09375 C-27.79919379 71.62515853 -36.38049731 69.97934254 -44.42578125 63.921875 C-52.80390247 56.23022926 -56.52713651 46.3348688 -57.33984375 35.20703125 C-57.7231844 23.06378857 -55.49785818 12.7457112 -47.0859375 3.68359375 C-46.31636719 2.85214844 -46.31636719 2.85214844 -45.53125 2.00390625 C-32.9353683 -10.10983643 -13.98169562 -8.82365435 0 0 Z " fill="#F4F8FB" transform="translate(822.0859375,484.31640625)"/>
<path d="M0 0 C5.23540433 5.41559033 8.84016715 10.68451295 9.125 18.375 C9.08375 19.24125 9.0425 20.1075 9 21 C2.53205867 22.51233701 -3.35590042 23.21432579 -10 23 C-10.17015625 22.38511719 -10.3403125 21.77023437 -10.515625 21.13671875 C-11.94773996 16.11319162 -11.94773996 16.11319162 -15 12 C-18.88111777 10.05944111 -22.08302276 9.80892875 -26.375 9.75 C-27.49648438 9.72421875 -28.61796875 9.6984375 -29.7734375 9.671875 C-34.29042597 10.13122976 -36.83606565 11.83606565 -40 15 C-40.8294368 19.44403507 -40.6909365 22.95168255 -38.1875 26.75 C-32.47356625 30.783365 -26.16583801 33.21141785 -19.6328125 35.625 C-7.72247579 40.04220257 3.39408004 44.40499363 10 56 C13.51222931 64.62092649 12.70506626 72.98285502 9.2421875 81.4609375 C5.07615011 89.97642274 -1.35123598 93.50250241 -10 97 C-21.95445734 100.96584378 -35.95910949 99.61246714 -47.3125 94.4375 C-54.3938819 90.58770111 -59.87798289 85.33699285 -63 77.8125 C-63.91427724 74.32681801 -64.26823257 71.57643427 -64 68 C-57.40489096 66.06026205 -51.89596209 64.86478506 -45 65 C-44.76925781 65.67546875 -44.53851563 66.3509375 -44.30078125 67.046875 C-42.02709332 73.26581591 -40.11479677 76.94260162 -34 80 C-31.21558045 80.15129552 -28.47287513 80.23138429 -25.6875 80.25 C-24.92759766 80.270625 -24.16769531 80.29125 -23.38476562 80.3125 C-18.74357863 80.34475847 -15.78376669 79.97703908 -12 77 C-9.87261862 74.28575479 -9.07090439 72.4760723 -8.5625 69.0625 C-9.12914509 65.09598435 -10.52451397 63.13944089 -13 60 C-15.85763566 58.2474108 -15.85763566 58.2474108 -19.1875 57.0625 C-19.78900879 56.82144531 -20.39051758 56.58039063 -21.01025391 56.33203125 C-23.00023192 55.53664876 -24.99901082 54.76722595 -27 54 C-53.56474838 43.68872225 -53.56474838 43.68872225 -60.16796875 30.703125 C-62.41888217 23.3902983 -62.15115967 14.3933818 -58.9375 7.4375 C-54.51263986 -0.03642343 -48.18024311 -4.30093501 -40 -7 C-26.46033889 -9.79301752 -11.29409265 -8.61413846 0 0 Z " fill="#F4F8FB" transform="translate(435,457)"/>
<path d="M0 0 C5.4276196 4.21262952 7.89774371 8.96970577 9.69140625 15.52734375 C10.18734119 19.87686058 10.16043825 24.16214917 10.08203125 28.53515625 C10.07637146 29.74178925 10.07071167 30.94842224 10.06488037 32.19161987 C10.04264725 36.01227981 9.99247302 39.83197146 9.94140625 43.65234375 C9.92132447 46.25649679 9.90307666 48.86066466 9.88671875 51.46484375 C9.84282522 57.81933588 9.77604406 64.17327061 9.69140625 70.52734375 C7.04550611 70.55419054 4.39987529 70.57410732 1.75390625 70.58984375 C0.99916016 70.59822266 0.24441406 70.60660156 -0.53320312 70.61523438 C-2.45853688 70.62386816 -4.38394956 70.57958708 -6.30859375 70.52734375 C-7.30859375 69.52734375 -7.30859375 69.52734375 -7.40625 67.6796875 C-7.37369792 65.62890625 -7.34114583 63.578125 -7.30859375 61.52734375 C-7.96859375 61.52734375 -8.62859375 61.52734375 -9.30859375 61.52734375 C-9.55738281 62.13191406 -9.80617188 62.73648438 -10.0625 63.359375 C-11.5065683 65.87178223 -12.76995188 66.75313617 -15.24609375 68.21484375 C-15.93574219 68.63121094 -16.62539063 69.04757812 -17.3359375 69.4765625 C-23.66490728 72.84783551 -32.25615169 72.63989186 -39.0546875 70.7734375 C-45.48197562 68.00959522 -50.59114466 64.5602332 -53.578125 58.07421875 C-55.46869842 51.48248682 -55.53294045 44.21148843 -52.68359375 37.96484375 C-45.52485346 30.61771556 -39.64311437 27.38780767 -29.40234375 27.234375 C-26.87092687 27.25415169 -24.33959095 27.28968679 -21.80859375 27.33984375 C-20.50921875 27.35337891 -19.20984375 27.36691406 -17.87109375 27.38085938 C-14.68315963 27.41602041 -11.49609776 27.46523711 -8.30859375 27.52734375 C-8.57807361 25.75728258 -8.86213402 23.98943701 -9.15234375 22.22265625 C-9.30896484 21.23797363 -9.46558594 20.25329102 -9.62695312 19.23876953 C-10.61611008 15.30410725 -12.10695509 13.92857275 -15.30859375 11.52734375 C-19.6447004 9.35929043 -25.14015695 10.29365639 -29.74609375 11.21484375 C-32.51692708 12.31901042 -32.51692708 12.31901042 -33.62109375 15.08984375 C-33.84796875 15.89421875 -34.07484375 16.69859375 -34.30859375 17.52734375 C-35.30859375 18.52734375 -35.30859375 18.52734375 -37.07446289 18.64086914 C-37.82332764 18.63563232 -38.57219238 18.63039551 -39.34375 18.625 C-40.15263672 18.62177734 -40.96152344 18.61855469 -41.79492188 18.61523438 C-42.64505859 18.60685547 -43.49519531 18.59847656 -44.37109375 18.58984375 C-45.22509766 18.58533203 -46.07910156 18.58082031 -46.95898438 18.57617188 C-49.07555038 18.56434748 -51.1920806 18.54641144 -53.30859375 18.52734375 C-52.25526656 10.63859547 -48.64041892 4.77027311 -42.359375 -0.15234375 C-29.74381501 -8.27436142 -12.56683685 -8.01640862 0 0 Z " fill="#F5F8FB" transform="translate(581.30859375,483.47265625)"/>
<path d="M0 0 C6.64917938 3.67596909 11.31035518 8.4020706 14.40234375 15.328125 C15.21484375 19.203125 15.21484375 19.203125 15.40234375 22.328125 C13.28308771 24.44738104 8.78273445 23.74643517 5.83984375 23.890625 C5.03353516 23.93380859 4.22722656 23.97699219 3.39648438 24.02148438 C1.3986557 24.12787762 -0.59947695 24.22853388 -2.59765625 24.328125 C-3.05140625 23.21308594 -3.50515625 22.09804688 -3.97265625 20.94921875 C-5.3125528 17.36497667 -5.3125528 17.36497667 -7.59765625 15.390625 C-13.46027444 13.31428106 -19.2713222 13.39759138 -25.03515625 15.703125 C-30.68930758 21.49518246 -31.8569572 27.89307966 -32.09765625 35.828125 C-31.8569572 43.76317034 -30.68930758 50.16106754 -25.03515625 55.953125 C-19.29115349 58.25072611 -13.55126278 58.27076538 -7.66015625 56.390625 C-4.51737638 53.24784513 -3.14286649 49.44580816 -1.59765625 45.328125 C4.40415745 45.10987723 9.59468079 45.8224346 15.40234375 47.328125 C15.13433794 55.77030799 12.66065307 61.22189816 6.54296875 67.12109375 C-2.13831154 74.15293078 -11.7332414 75.41319537 -22.63037109 74.59130859 C-31.19922995 73.44496585 -38.76640058 69.00131093 -44.1796875 62.3984375 C-52.13793572 51.516356 -52.81196069 38.90269284 -51.31640625 25.87890625 C-49.4660338 17.10742918 -44.77155593 8.73953109 -37.59765625 3.328125 C-25.95342723 -3.49535776 -12.69678754 -5.42238746 0 0 Z " fill="#F4F8FB" transform="translate(504.59765625,480.671875)"/>
<path d="M0 0 C0.71542969 0.00064453 1.43085937 0.00128906 2.16796875 0.00195312 C5.32659104 0.02852098 7.85930662 0.18226887 10.875 1.1875 C10.875 6.1375 10.875 11.0875 10.875 16.1875 C7.88020833 16.05729167 4.88541667 15.92708333 1.890625 15.796875 C-1.17990206 15.95979495 -1.17990206 15.95979495 -3.46875 17.8125 C-5.55198922 20.79978643 -5.71777614 22.82135124 -5.875 26.4375 C-5.93171875 27.51515625 -5.9884375 28.5928125 -6.046875 29.703125 C-6.07265625 30.52296875 -6.0984375 31.3428125 -6.125 32.1875 C-4.90941406 32.17589844 -3.69382812 32.16429687 -2.44140625 32.15234375 C-0.85677236 32.14296722 0.72786318 32.13386687 2.3125 32.125 C3.11494141 32.11662109 3.91738281 32.10824219 4.74414062 32.09960938 C6.78795221 32.0909857 8.83183902 32.1352185 10.875 32.1875 C11.875 33.1875 11.875 33.1875 11.97265625 36.34765625 C11.94010417 39.9609375 11.90755208 43.57421875 11.875 47.1875 C5.935 47.1875 -0.005 47.1875 -6.125 47.1875 C-6.125 66.9875 -6.125 86.7875 -6.125 107.1875 C-12.065 107.1875 -18.005 107.1875 -24.125 107.1875 C-24.125 87.3875 -24.125 67.5875 -24.125 47.1875 C-27.755 47.1875 -31.385 47.1875 -35.125 47.1875 C-35.125 42.5675 -35.125 37.9475 -35.125 33.1875 C-31.495 33.1875 -27.865 33.1875 -24.125 33.1875 C-24.15980469 32.1253125 -24.19460938 31.063125 -24.23046875 29.96875 C-24.63198745 12.99053184 -24.63198745 12.99053184 -19.3203125 7.23046875 C-13.18002509 1.54201381 -8.39127334 -0.14520418 0 0 Z " fill="#F4F8FB" transform="translate(631.125,446.8125)"/>
<path d="M0 0 C5.61 0 11.22 0 17 0 C17 33.99 17 67.98 17 103 C11.39 103 5.78 103 0 103 C0 69.01 0 35.02 0 0 Z " fill="#F6F9FB" transform="translate(738,451)"/>
<path d="M0 0 C5.03170414 2.19565271 6.98271586 5.11521552 9.23828125 9.90234375 C12.55844604 19.04556678 11.75917054 29.1379554 8 38 C5.71202561 41.54267003 3.8812607 43.43530328 0 45 C-4.64154468 45.61413196 -9.66288977 46.0573722 -14.01171875 44.08984375 C-18.96578487 40.20895064 -21.01906465 35.01468253 -22 29 C-22.6404546 20.40110961 -22.58848749 12.5392833 -18 5 C-12.43187315 -0.4355524 -7.54337923 -0.73619967 0 0 Z " fill="#1C7AB0" transform="translate(806,494)"/>
<path d="M0 0 C4.68881378 2.14989278 7.0323844 5.7842549 9.09375 10.3984375 C11.48073867 18.63671699 11.31312832 28.03640164 7.25390625 35.70703125 C4.55221062 39.38365069 1.20171767 41.03692744 -3.0234375 42.4453125 C-9.14798868 42.94732489 -12.14861396 42.54459594 -17.0234375 38.4453125 C-22.39028637 33.07846363 -23.11578839 26.83710051 -23.4609375 19.5703125 C-23.31557015 11.91429887 -20.80583775 6.16300577 -15.3359375 0.8203125 C-10.17355246 -1.32256431 -5.40053193 -1.4804547 0 0 Z " fill="#1B7BB1" transform="translate(884.0234375,494.5546875)"/>
<path d="M0 0 C5.445 -0.0928125 5.445 -0.0928125 11 -0.1875 C12.12792969 -0.21481201 13.25585938 -0.24212402 14.41796875 -0.27026367 C20.68202818 -0.32161747 25.3345442 0.26472834 31 3 C34.62421958 6.62421958 35.27052499 9.6000028 35.4375 14.5625 C35.25886769 18.80933918 35.00831938 21.79112599 32 25 C26.89662749 28.04030703 22.67369488 29.13182381 16.796875 29.09765625 C15.91354492 29.09515869 15.03021484 29.09266113 14.12011719 29.09008789 C13.00797852 29.08098389 11.89583984 29.07187988 10.75 29.0625 C7.2025 29.041875 3.655 29.02125 0 29 C0 19.43 0 9.86 0 0 Z " fill="#1C79AF" transform="translate(672,509)"/>
<path d="M0 0 C3.320625 -0.061875 6.64125 -0.12375 10.0625 -0.1875 C11.09511963 -0.21481201 12.12773926 -0.24212402 13.19165039 -0.27026367 C18.93141525 -0.3217538 22.95652595 0.19290852 28 3 C31.11061244 6.34989032 32.26581613 9.01273493 32.5 13.5 C32.27403455 17.97411596 31.05055526 20.62833366 28 24 C22.43679371 27.77121196 17.07647687 27.34857311 10.625 27.1875 C5.365625 27.0946875 5.365625 27.0946875 0 27 C0 18.09 0 9.18 0 0 Z " fill="#1B77AE" transform="translate(672,467)"/>
<path d="M0 0 C1.19882812 0.00483398 1.19882812 0.00483398 2.421875 0.00976562 C3.246875 0.01814453 4.071875 0.02652344 4.921875 0.03515625 C5.76234375 0.03966797 6.6028125 0.04417969 7.46875 0.04882812 C9.53648901 0.06057664 11.60419124 0.07851103 13.671875 0.09765625 C13.40738082 6.63346912 12.56018699 11.43670761 7.671875 16.09765625 C2.52588457 19.10757518 -1.5220869 19.83493093 -7.328125 19.09765625 C-10.31215654 17.7862029 -11.14222353 16.77538555 -13.328125 14.09765625 C-14.11197127 10.92843607 -14.12730135 8.26476254 -13.328125 5.09765625 C-9.46896948 0.80970567 -5.56914238 -0.03977959 0 0 Z " fill="#1A74AC" transform="translate(559.328125,521.90234375)"/>
<path d="M0 0 C3.42375 -0.04125 6.8475 -0.0825 10.375 -0.125 C11.99220947 -0.15231201 11.99220947 -0.15231201 13.64208984 -0.18017578 C14.48980957 -0.1851709 15.3375293 -0.19016602 16.2109375 -0.1953125 C17.51490479 -0.21102295 17.51490479 -0.21102295 18.84521484 -0.22705078 C21 0 21 0 23 2 C16.07 2 9.14 2 2 2 C2 9.92 2 17.84 2 26 C7.94 26 13.88 26 20 26 C20 26.33 20 26.66 20 27 C13.4 27 6.8 27 0 27 C0 18.09 0 9.18 0 0 Z " fill="#1F6AA5" transform="translate(672,467)"/>
<path d="M0 0 C5.630625 -0.061875 5.630625 -0.061875 11.375 -0.125 C12.55755371 -0.14320801 13.74010742 -0.16141602 14.95849609 -0.18017578 C15.88742676 -0.1851709 16.81635742 -0.19016602 17.7734375 -0.1953125 C19.20308838 -0.21102295 19.20308838 -0.21102295 20.66162109 -0.22705078 C23 0 23 0 25 2 C17.41 2 9.82 2 2 2 C2 10.91 2 19.82 2 29 C1.34 29 0.68 29 0 29 C0 19.43 0 9.86 0 0 Z " fill="#2B75AB" transform="translate(672,509)"/>
<path d="M0 0 C0.99 0.33 1.98 0.66 3 1 C3 11.89 3 22.78 3 34 C2.01 33.67 1.02 33.34 0 33 C-0.16725986 28.46122739 -0.32785453 23.92228756 -0.48217773 19.38305664 C-0.5356662 17.8377441 -0.59100068 16.29249433 -0.64819336 14.74731445 C-0.72991433 12.53089949 -0.8050717 10.31434616 -0.87890625 8.09765625 C-0.90594131 7.4028566 -0.93297638 6.70805695 -0.96083069 5.99220276 C-1.01301108 4.32890224 -1.01185107 2.66407661 -1 1 C-0.67 0.67 -0.34 0.34 0 0 Z " fill="#3077AB" transform="translate(309,548)"/>
<path d="M0 0 C0.99 0 1.98 0 3 0 C3.33 14.19 3.66 28.38 4 43 C3.01 43 2.02 43 1 43 C0.22478329 40.25104407 -0.12278847 37.81884931 -0.11352539 34.96582031 C-0.11344986 34.18531311 -0.11337433 33.40480591 -0.11329651 32.60064697 C-0.10813522 31.76821472 -0.10297394 30.93578247 -0.09765625 30.078125 C-0.0962413 29.21813904 -0.09482635 28.35815308 -0.09336853 27.47210693 C-0.08778097 24.73136891 -0.07523075 21.99071324 -0.0625 19.25 C-0.05748339 17.3893241 -0.05292077 15.52864691 -0.04882812 13.66796875 C-0.03781561 9.11194754 -0.02055951 4.55598772 0 0 Z " fill="#D5E4EE" transform="translate(155,452)"/>
<path d="M0 0 C4.52462758 2.20117018 6.30009305 4.25815429 8 9 C8 11.64 8 14.28 8 17 C-0.91 17 -9.82 17 -19 17 C-15.69711664 14.79807776 -14.72537273 14.76040032 -10.89453125 14.8046875 C-9.91162109 14.81113281 -8.92871094 14.81757813 -7.91601562 14.82421875 C-6.89185547 14.84097656 -5.86769531 14.85773438 -4.8125 14.875 C-3.77673828 14.88402344 -2.74097656 14.89304687 -1.67382812 14.90234375 C0.88434685 14.9259214 3.44205748 14.9588297 6 15 C5.77082032 13.39272673 5.51579198 11.78912584 5.25 10.1875 C5.11078125 9.29417969 4.9715625 8.40085937 4.828125 7.48046875 C3.82489575 4.47551322 2.56719406 3.73755208 0 2 C0 1.34 0 0.68 0 0 Z " fill="#2670A7" transform="translate(565,494)"/>
<path d="M0 0 C0.33 0.66 0.66 1.32 1 2 C-0.63412443 3.70840281 -1.86906094 4.93453047 -4 6 C-4.33 7.65 -4.66 9.3 -5 11 C0.28 14.3 5.56 17.6 11 21 C10.34 21.33 9.68 21.66 9 22 C5.81608828 20.60430124 2.90257667 18.68280656 -0.0625 16.875 C-0.90361328 16.38773437 -1.74472656 15.90046875 -2.61132812 15.3984375 C-3.41119141 14.91375 -4.21105469 14.4290625 -5.03515625 13.9296875 C-5.7712915 13.48866699 -6.50742676 13.04764648 -7.26586914 12.59326172 C-9 11 -9 11 -10 6 C-6.7 4.02 -3.4 2.04 0 0 Z " fill="#125B99" transform="translate(224,458)"/>
<path d="M0 0 C3.3 0 6.6 0 10 0 C10.33 0.66 10.66 1.32 11 2 C8.36 2 5.72 2 3 2 C3 5.3 3 8.6 3 12 C5.31 12 7.62 12 10 12 C10.33 12.66 10.66 13.32 11 14 C7.37 14 3.74 14 0 14 C0 9.38 0 4.76 0 0 Z " fill="#E9F2F6" transform="translate(596,480)"/>
<path d="M0 0 C0.33 0 0.66 0 1 0 C1.1081866 2.58445773 1.18737237 5.16437352 1.25 7.75 C1.28351562 8.47960937 1.31703125 9.20921875 1.3515625 9.9609375 C1.390625 12.109375 1.390625 12.109375 1 16 C-0.32 17.32 -1.64 18.64 -3 20 C-3 13.73 -3 7.46 -3 1 C-2.67 1.66 -2.34 2.32 -2 3 C-1.34 3 -0.68 3 0 3 C0 2.01 0 1.02 0 0 Z " fill="#1E7EB2" transform="translate(840,506)"/>
<path d="M0 0 C3.79765775 1.36754813 6.83525874 3.11188891 10.125 5.44140625 C11.07890625 6.10720703 12.0328125 6.77300781 13.015625 7.45898438 C15.00704949 8.86262585 16.99663283 10.26888308 18.984375 11.67773438 C19.93828125 12.34224609 20.8921875 13.00675781 21.875 13.69140625 C22.73867188 14.30185791 23.60234375 14.91230957 24.4921875 15.54125977 C26.9280991 17.13933859 26.9280991 17.13933859 29.73828125 17.54663086 C30.85783203 17.77104858 30.85783203 17.77104858 32 18 C33.3125 20.5625 33.3125 20.5625 34 23 C29.979617 21.56201591 26.71114337 19.62240775 23.18359375 17.2265625 C22.37608421 16.67903824 22.37608421 16.67903824 21.55226135 16.12045288 C20.42037418 15.35119443 19.29010204 14.57955477 18.16137695 13.80566406 C16.44356142 12.6291514 14.71931912 11.46255607 12.99414062 10.296875 C11.89022592 9.54485633 10.78669712 8.79227079 9.68359375 8.0390625 C8.68900146 7.36053223 7.69440918 6.68200195 6.66967773 5.98291016 C4.19990935 4.1484832 2.10496585 2.23650669 0 0 Z " fill="#0F4E8E" transform="translate(255,378)"/>
<path d="M0 0 C0.33 0 0.66 0 1 0 C0.36927957 9.98278206 0.36927957 9.98278206 -3 14 C-3.99 14 -4.98 14 -6 14 C-6 24.23 -6 34.46 -6 45 C-6.33 45 -6.66 45 -7 45 C-7.09903473 40.51601216 -7.17154483 36.03260708 -7.21972656 31.54785156 C-7.23981599 30.02299915 -7.26709316 28.49822352 -7.30175781 26.97363281 C-7.35039796 24.77910402 -7.37299396 22.58559531 -7.390625 20.390625 C-7.41157227 19.07094727 -7.43251953 17.75126953 -7.45410156 16.39160156 C-6.92596411 12.44703944 -5.99814845 11.47598289 -3 9 C-1.90607147 6.67372224 -1.90607147 6.67372224 -1.25 4.25 C-1.00765625 3.45078125 -0.7653125 2.6515625 -0.515625 1.828125 C-0.34546875 1.22484375 -0.1753125 0.6215625 0 0 Z " fill="#005194" transform="translate(332,535)"/>
<path d="M0 0 C4.10958767 1.45044271 7.43258745 3.51110752 11 6 C10.67 6.66 10.34 7.32 10 8 C6.04 8 2.08 8 -2 8 C-1.34 7.67 -0.68 7.34 0 7 C0 4.69 0 2.38 0 0 Z " fill="#16659F" transform="translate(296,423)"/>
<path d="M0 0 C1.20366211 0.00966797 1.20366211 0.00966797 2.43164062 0.01953125 C3.26501953 0.03628906 4.09839844 0.05304687 4.95703125 0.0703125 C6.22450195 0.08384766 6.22450195 0.08384766 7.51757812 0.09765625 C9.60168368 0.12120547 11.68564342 0.15707603 13.76953125 0.1953125 C13.89453125 3.0703125 13.89453125 3.0703125 13.76953125 6.1953125 C13.10953125 6.8553125 12.44953125 7.5153125 11.76953125 8.1953125 C11.76953125 6.2153125 11.76953125 4.2353125 11.76953125 2.1953125 C5.49953125 2.1953125 -0.77046875 2.1953125 -7.23046875 2.1953125 C-4.12961304 0.12807536 -3.50115194 -0.04966173 0 0 Z " fill="#2E73A9" transform="translate(559.23046875,521.8046875)"/>
<path d="M0 0 C0.66 0.33 1.32 0.66 2 1 C-2.62 4.3 -7.24 7.6 -12 11 C-12.66 10.67 -13.32 10.34 -14 10 C-11.95203993 6.9280599 -10.31709697 5.54797859 -7 4 C-6.67 3.34 -6.34 2.68 -6 2 C-4.34178227 1.62690101 -2.67422986 1.29299023 -1 1 C-0.67 0.67 -0.34 0.34 0 0 Z " fill="#175B98" transform="translate(178,410)"/>
<path d="M0 0 C0.99 0.495 0.99 0.495 2 1 C2 1.66 2 2.32 2 3 C3.32 2.34 4.64 1.68 6 1 C6 3.64 6 6.28 6 9 C5.34 7.68 4.68 6.36 4 5 C4 9.95 4 14.9 4 20 C3.67 20 3.34 20 3 20 C2.86722656 18.97519531 2.73445313 17.95039062 2.59765625 16.89453125 C2.41935912 15.5338426 2.24096877 14.17316615 2.0625 12.8125 C1.97548828 12.13896484 1.88847656 11.46542969 1.79882812 10.77148438 C1.32174523 7.14918834 0.76987965 3.57196415 0 0 Z " fill="#0C5B9A" transform="translate(444,511)"/>
<path d="M0 0 C4.62 0 9.24 0 14 0 C14 0.99 14 1.98 14 3 C9.38 3 4.76 3 0 3 C0 2.01 0 1.02 0 0 Z " fill="#E9F2F6" transform="translate(401,449)"/>
<path d="M0 0 C4.43170173 1.51896368 8.03024076 3.92639809 11.8125 6.625 C12.40998047 7.04523438 13.00746094 7.46546875 13.62304688 7.8984375 C15.08520565 8.92779728 16.54304899 9.9632823 18 11 C15 12 15 12 13.2824707 11.22729492 C12.66976318 10.81584229 12.05705566 10.40438965 11.42578125 9.98046875 C10.75869141 9.53509766 10.09160156 9.08972656 9.40429688 8.63085938 C8.71400391 8.15455078 8.02371094 7.67824219 7.3125 7.1875 C6.61060547 6.72279297 5.90871094 6.25808594 5.18554688 5.77929688 C3.41468278 4.57979029 1.70175941 3.29568152 0 2 C0 1.34 0 0.68 0 0 Z " fill="#E6F0F5" transform="translate(281,397)"/>
<path d="M0 0 C0 0.99 0 1.98 0 3 C-0.99 3.33 -1.98 3.66 -3 4 C-3.33 4.99 -3.66 5.98 -4 7 C-4.825 7.28875 -5.65 7.5775 -6.5 7.875 C-7.325 8.24625 -8.15 8.6175 -9 9 C-9.89386164 11.54775306 -9.89386164 11.54775306 -10 14 C-10.66 12.68 -11.32 11.36 -12 10 C-8.29909479 6.0747975 -4.45040344 3.05419844 0 0 Z " fill="#0E5293" transform="translate(176,429)"/>
<path d="M0 0 C-2 3 -2 3 -5 4.375 C-8.18340274 5.73340548 -8.18340274 5.73340548 -9.375 8.6875 C-9.58125 9.450625 -9.7875 10.21375 -10 11 C-10.33 11 -10.66 11 -11 11 C-11.38937141 7.5930002 -11.15388085 6.23631702 -9.25 3.3125 C-6.02925313 0.00228793 -4.52978114 -1.50992705 0 0 Z " fill="#EAF2F7" transform="translate(240,426)"/>
<path d="M0 0 C4.74674115 1.43840641 9.17024324 3.85192925 12 8 C12.2965041 11.48522361 11.79777139 14.60779562 11 18 C10.67 18 10.34 18 10 18 C9.91363281 17.41992188 9.82726562 16.83984375 9.73828125 16.2421875 C8.68183966 10.36875993 7.1662468 7.26786258 3 3 C2.401875 2.38125 1.80375 1.7625 1.1875 1.125 C0.795625 0.75375 0.40375 0.3825 0 0 Z " fill="#115595" transform="translate(324,422)"/>
<path d="M0 0 C0 0.33 0 0.66 0 1 C-1.216875 1.28875 -2.43375 1.5775 -3.6875 1.875 C-10.41776892 3.43791573 -10.41776892 3.43791573 -15.3125 8.125 C-15.869375 9.07375 -16.42625 10.0225 -17 11 C-17.33 10.34 -17.66 9.68 -18 9 C-13.10299855 0.83833092 -9.11246497 -0.53602735 0 0 Z " fill="#0B5C9D" transform="translate(804,494)"/>
<path d="M0 0 C4.43170173 1.51896368 8.03024076 3.92639809 11.8125 6.625 C12.40998047 7.04523438 13.00746094 7.46546875 13.62304688 7.8984375 C15.08520565 8.92779728 16.54304899 9.9632823 18 11 C16.02 11.99 16.02 11.99 14 13 C13.69449219 12.13955078 13.69449219 12.13955078 13.3828125 11.26171875 C11.45541092 8.1092738 8.98428235 6.77142139 5.875 4.8125 C3.90343359 3.56229494 1.9410855 2.29702502 0 1 C0 0.67 0 0.34 0 0 Z " fill="#0F5192" transform="translate(275,409)"/>
<path d="M0 0 C-0.0625 1.8125 -0.0625 1.8125 -1 4 C-4.4375 5.625 -4.4375 5.625 -8 7 C-8.66 7.66 -9.32 8.32 -10 9 C-12.125 9.625 -12.125 9.625 -14 10 C-4.57142857 0 -4.57142857 0 0 0 Z " fill="#105394" transform="translate(199,414)"/>
<path d="M0 0 C0.66 0.33 1.32 0.66 2 1 C0.25579087 2.32018588 -1.49560091 3.63088602 -3.25 4.9375 C-4.22453125 5.66839844 -5.1990625 6.39929688 -6.203125 7.15234375 C-8.6267881 8.75345079 -10.1757492 9.57636238 -13 10 C-12.875 8.125 -12.875 8.125 -12 6 C-10.02416285 5.26480478 -8.01822402 4.60927518 -6 4 C-3.9659094 2.71927629 -1.95597184 1.39712274 0 0 Z " fill="#125F9E" transform="translate(252,626)"/>
<path d="M0 0 C0.99 0 1.98 0 3 0 C2.5359375 0.928125 2.5359375 0.928125 2.0625 1.875 C0.5960722 6.18802294 0.33380974 10.4759996 0 15 C-2 13 -2 13 -2.25 9.75 C-2.00879145 6.1318718 -1.31162801 3.36104678 0 0 Z " fill="#1C5D9B" transform="translate(139,431)"/>
<path d="M0 0 C-1.81817001 2.31459868 -2.75615543 2.95377187 -5.69921875 3.51171875 C-6.68535156 3.56972656 -7.67148437 3.62773437 -8.6875 3.6875 C-9.68136719 3.75324219 -10.67523437 3.81898438 -11.69921875 3.88671875 C-12.45847656 3.92410156 -13.21773437 3.96148437 -14 4 C-9.28840397 0.26321694 -5.98096662 -0.11284843 0 0 Z " fill="#E6F0F5" transform="translate(630,447)"/>
<path d="M0 0 C0.66 0.33 1.32 0.66 2 1 C-3.445 4.96 -3.445 4.96 -9 9 C-9.66 8.67 -10.32 8.34 -11 8 C-10.3125 6.0625 -10.3125 6.0625 -9 4 C-7.34608154 3.60828247 -5.67654729 3.27942455 -4 3 C-1.73545927 1.53228729 -1.73545927 1.53228729 0 0 Z " fill="#135090" transform="translate(218,382)"/>
<path d="M0 0 C0.33 0 0.66 0 1 0 C0.66009167 5.37992836 0.31442207 9.53273547 -3 14 C-4.32 13.67 -5.64 13.34 -7 13 C-6.401875 12.525625 -5.80375 12.05125 -5.1875 11.5625 C-2.20879642 8.07316152 -1.2307361 4.3635189 0 0 Z " fill="#0F5B9A" transform="translate(332,535)"/>
<path d="M0 0 C1.98 0.99 1.98 0.99 4 2 C4 2.66 4 3.32 4 4 C4.66 4 5.32 4 6 4 C7.37310707 5.29233607 8.71034824 6.62437146 10 8 C9.67 8.66 9.34 9.32 9 10 C7.67823515 9.09674384 6.36784934 8.17682097 5.0625 7.25 C4.33160156 6.73953125 3.60070312 6.2290625 2.84765625 5.703125 C0.79194601 3.80822085 0.37330824 2.72574271 0 0 Z " fill="#E7F0F5" transform="translate(530,543)"/>
<path d="M0 0 C3.6875 0.3125 3.6875 0.3125 7 1 C7 1.66 7 2.32 7 3 C3.7 3 0.4 3 -3 3 C-2.01 2.01 -1.02 1.02 0 0 Z " fill="#0D5594" transform="translate(237,361)"/>
<path d="M0 0 C1.98 0 3.96 0 6 0 C3.25604436 2.94721162 0.61662784 5.19168608 -3 7 C-3.66 6.67 -4.32 6.34 -5 6 C-4.360625 5.38125 -3.72125 4.7625 -3.0625 4.125 C-0.96116416 2.17402388 -0.96116416 2.17402388 0 0 Z " fill="#0F5595" transform="translate(217,443)"/>
<path d="M0 0 C0.66 0.33 1.32 0.66 2 1 C0.68 2.65 -0.64 4.3 -2 6 C-2.33 5.67 -2.66 5.34 -3 5 C-3.66 5.66 -4.32 6.32 -5 7 C-5.99 6.67 -6.98 6.34 -8 6 C-5.36 4.02 -2.72 2.04 0 0 Z " fill="#0E5293" transform="translate(217,400)"/>
<path d="M0 0 C0.99 0.33 1.98 0.66 3 1 C2.34 1 1.68 1 1 1 C0.67 1.99 0.34 2.98 0 4 C-0.99 4.33 -1.98 4.66 -3 5 C-4.66710346 6.49985609 -4.66710346 6.49985609 -6 8 C-4.75237172 4.15314615 -3.6129609 1.97070595 0 0 Z " fill="#0F63A4" transform="translate(870,495)"/>
<path d="M0 0 C0.66 0.33 1.32 0.66 2 1 C0.95125002 3.62187494 0.35068687 4.79371361 -2.125 6.25 C-2.74375 6.4975 -3.3625 6.745 -4 7 C-4.66 6.34 -5.32 5.68 -6 5 C-4.02 3.35 -2.04 1.7 0 0 Z " fill="#0F639F" transform="translate(439,545)"/>
<path d="M0 0 C2.64 0 5.28 0 8 0 C8 0.66 8 1.32 8 2 C8.99 2.33 9.98 2.66 11 3 C9 4 9 4 6.8359375 3.44140625 C6.02382813 3.15136719 5.21171875 2.86132812 4.375 2.5625 C3.55773437 2.27503906 2.74046875 1.98757813 1.8984375 1.69140625 C1.27195312 1.46324219 0.64546875 1.23507812 0 1 C0 0.67 0 0.34 0 0 Z " fill="#13649F" transform="translate(697,450)"/>
<path d="M0 0 C0.66 0.33 1.32 0.66 2 1 C-0.31 2.65 -2.62 4.3 -5 6 C-5.66 5.67 -6.32 5.34 -7 5 C-6.67 4.01 -6.34 3.02 -6 2 C-4.7934375 1.7834375 -4.7934375 1.7834375 -3.5625 1.5625 C-1.07896294 1.25864751 -1.07896294 1.25864751 0 0 Z " fill="#125492" transform="translate(178,410)"/>
<path d="M0 0 C3.59391114 1.33488128 6.75490696 2.96022723 10 5 C7.3333581 6.33332095 5.83319697 5.67102033 3 5 C3 4.01 3 3.02 3 2 C2.01 1.67 1.02 1.34 0 1 C0 0.67 0 0.34 0 0 Z " fill="#155B9A" transform="translate(264,514)"/>
<path d="M0 0 C0.66 0.33 1.32 0.66 2 1 C1.21625 1.2475 0.4325 1.495 -0.375 1.75 C-3.32317108 3.15389099 -3.9024777 4.00675737 -5 7 C-5.66 6.67 -6.32 6.34 -7 6 C-7 5.34 -7 4.68 -7 4 C-1.7265625 0.77734375 -1.7265625 0.77734375 0 0 Z " fill="#E6F0F6" transform="translate(545,480)"/>
<path d="M0 0 C3.87132028 0.57352893 6.08172796 2.48704352 9 5 C8.67 5.66 8.34 6.32 8 7 C6.66382648 6.02471263 5.3311249 5.04466681 4 4.0625 C3.2575 3.51722656 2.515 2.97195313 1.75 2.41015625 C1.1725 1.94480469 0.595 1.47945313 0 1 C0 0.67 0 0.34 0 0 Z " fill="#E3EDF5" transform="translate(288,416)"/>
<path d="M0 0 C2.64 0.33 5.28 0.66 8 1 C8 1.66 8 2.32 8 3 C5.69 3 3.38 3 1 3 C0.67 2.01 0.34 1.02 0 0 Z " fill="#D4E5EF" transform="translate(221,664)"/>
<path d="M0 0 C0 0.66 0 1.32 0 2 C-2.31 2 -4.62 2 -7 2 C-7.33 1.34 -7.66 0.68 -8 0 C-4.94736336 -0.98120464 -3.05263664 -0.98120464 0 0 Z " fill="#E6F0F5" transform="translate(556,479)"/>
<path d="M0 0 C2.7839183 1.39195915 2.97898997 3.15575779 4 6 C1.5625 5.1875 1.5625 5.1875 -1 4 C-1.33 3.01 -1.66 2.02 -2 1 C-1.34 0.67 -0.68 0.34 0 0 Z " fill="#105997" transform="translate(285,395)"/>
</svg>
